testWalking_kinetics.mot
nRows=12
nColumns=19

name testWalking_kinetics.mot
datacolumns 19
datarows 12
range 0.7583333254 0.7685185075
endheader
time	ground_force_vx	ground_force_vy	ground_force_vz	ground_force_px	ground_force_py	ground_force_pz	ground_force_vx	ground_force_vy	ground_force_vz	ground_force_px	ground_force_py	ground_force_pz	ground_torque_x	ground_torque_y	ground_torque_z	ground_torque_x	ground_torque_y	ground_torque_z
        0.7583333254	       11.9577150345	      651.0587768555	      -27.9581794739	        1.0601465702	        0.0000000000	        0.0653065145	        0.0000000000	       -0.0000000000	       -0.0000000000	        0.0762562081	        0.0000000000	       -0.1868414730	        0.0000000000	        6.1527590752	       -0.0000000000	        0.0000000000	       -0.0000000000	       -0.0000000000	
        0.7592592835	       11.9355297089	      650.7085571289	      -27.8467044830	        1.0606298447	        0.0000000000	        0.0653663129	        0.0000000000	       -0.0000000000	       -0.0000000000	        0.0762562081	        0.0000000000	       -0.1868414730	        0.0000000000	        6.1380167007	       -0.0000000000	        0.0000000000	       -0.0000000000	       -0.0000000000	
        0.7601851821	       12.0020847321	      651.6715698242	      -27.7575225830	        1.0609862804	        0.0000000000	        0.0654258355	        0.0000000000	       -0.0000000000	       -0.0000000000	        0.0762562081	        0.0000000000	       -0.1868414730	        0.0000000000	        5.9293136597	        0.0000000000	        0.0000000000	       -0.0000000000	       -0.0000000000	
        0.7611111403	       12.0908250809	      652.4594726563	      -27.9135894775	        1.0613766909	        0.0000000000	        0.0654473752	        0.0000000000	       -0.0000000000	       -0.0000000000	        0.0762562081	        0.0000000000	       -0.1868414730	        0.0000000000	        6.0404767990	       -0.0000000000	        0.0000000000	       -0.0000000000	       -0.0000000000	
        0.7620370388	       12.1795644760	      652.8096313477	      -27.9135894775	        1.0617736578	        0.0000000000	        0.0654783100	        0.0000000000	       -0.0000000000	       -0.0000000000	        0.0762562081	        0.0000000000	       -0.1868414730	        0.0000000000	        6.2078437805	       -0.0000000000	        0.0000000000	       -0.0000000000	       -0.0000000000	
        0.7629629374	       12.1573801041	      653.2473144531	      -27.8244094849	        1.0622088909	        0.0000000000	        0.0654981434	        0.0000000000	       -0.0000000000	       -0.0000000000	        0.0762562081	        0.0000000000	       -0.1868414730	        0.0000000000	        6.0399355888	       -0.0000000000	        0.0000000000	       -0.0000000000	       -0.0000000000	
        0.7638888955	       12.3348598480	      654.1227416992	      -27.9804744720	        1.0625647306	        0.0000000000	        0.0655863807	        0.0000000000	       -0.0000000000	       -0.0000000000	        0.0762562081	        0.0000000000	       -0.1868414730	        0.0000000000	        5.9279446602	       -0.0000000000	        0.0000000000	       -0.0000000000	       -0.0000000000	
        0.7648147941	       12.2904901505	      654.3853759766	      -27.9135894775	        1.0629340410	        0.0000000000	        0.0656379908	        0.0000000000	       -0.0000000000	       -0.0000000000	        0.0762562081	        0.0000000000	       -0.1868414730	        0.0000000000	        6.1622061729	        0.0000000000	        0.0000000000	       -0.0000000000	       -0.0000000000	
        0.7657407522	       12.2461194992	      655.4359130859	      -27.8912944794	        1.0634480715	        0.0000000000	        0.0656620935	        0.0000000000	       -0.0000000000	       -0.0000000000	        0.0762562081	        0.0000000000	       -0.1868414730	        0.0000000000	        6.1862730980	       -0.0000000000	        0.0000000000	       -0.0000000000	       -0.0000000000	
        0.7666666508	       12.2461194992	      655.1732788086	      -28.1365413666	        1.0637550354	        0.0000000000	        0.0656133369	        0.0000000000	       -0.0000000000	       -0.0000000000	        0.0762562081	        0.0000000000	       -0.1868414730	        0.0000000000	        5.9430408478	       -0.0000000000	        0.0000000000	       -0.0000000000	       -0.0000000000	
        0.7675926089	       12.6676349640	      655.1732788086	      -28.3149032593	        1.0641827583	        0.0000000000	        0.0656577721	        0.0000000000	       -0.0000000000	       -0.0000000000	        0.0762562081	        0.0000000000	       -0.1868414730	        0.0000000000	        5.9805288315	       -0.0000000000	        0.0000000000	       -0.0000000000	       -0.0000000000	
        0.7685185075	       12.9116697311	      654.9982299805	      -28.2480182648	        1.0645782948	        0.0000000000	        0.0657091066	        0.0000000000	       -0.0000000000	       -0.0000000000	        0.0762562081	        0.0000000000	       -0.1868414730	        0.0000000000	        6.1358480453	       -0.0000000000	        0.0000000000	       -0.0000000000	       -0.0000000000	
